<?xml version="1.0" encoding="UTF-8"?><svg id="Layer_4" xmlns="http://www.w3.org/2000/svg" viewBox="0 0 800 800"><g id="LOGO-PATH"><path d="M235.7,727.79c-15.39,0-29.72-8.28-37.41-21.6L33.98,421.6c-7.69-13.32-7.69-29.88,0-43.2L198.28,93.81c7.69-13.32,22.03-21.6,37.41-21.6h328.61c15.39,0,29.72,8.28,37.41,21.6l164.3,284.58c7.69,13.32,7.69,29.88,0,43.2l-164.3,284.58c-7.69,13.32-22.03,21.6-37.41,21.6H235.7Z" fill="#524d79"/><path d="M564.3,78.71c13.07,0,25.25,7.03,31.79,18.35l164.3,284.58c6.54,11.32,6.54,25.38,0,36.7l-164.3,284.58c-6.54,11.32-18.71,18.35-31.79,18.35H235.7c-13.07,0-25.25-7.03-31.78-18.35L39.61,418.35c-6.54-11.32-6.54-25.38,0-36.7L203.91,97.07c6.54-11.32,18.71-18.35,31.78-18.35h328.61M564.3,65.71H235.7c-17.76,0-34.16,9.47-43.04,24.85L28.35,375.15c-8.88,15.38-8.88,34.32,0,49.7l164.3,284.58c8.88,15.38,25.29,24.85,43.04,24.85h328.61c17.76,0,34.17-9.47,43.04-24.85l164.3-284.58c8.88-15.38,8.88-34.32,0-49.7l-164.3-284.58c-8.88-15.38-25.29-24.85-43.04-24.85h0Z" fill="#e7e5f2"/></g><path id="LOGO-PATH-2" d="M320.11,461.28c0,17.3,1.61,33.08,4.83,47.32,3.22,14.25,8.91,26.38,17.05,36.38,8.14,10.01,19,17.81,32.57,23.41,13.56,5.6,30.7,8.4,51.39,8.4,16.28,0,30.02-1.36,41.22-4.07,11.2-2.71,21.37-5.93,30.53-9.67l-10.69-59.03c-7.12,2.72-15.01,4.83-23.66,6.36-8.65,1.53-17.05,2.29-25.19,2.29-16.97,0-28.24-4.75-33.84-14.25-5.6-9.49-8.4-22.21-8.4-38.16v-94.14h91.08v-63.1h-91.08v-78.87l-75.82,12.21v224.91Z" fill="#e7e5f2"/></svg>